# xmcd
#
# Track frame offsets:
#	150
#	27831
#	52661
#	67066
#	100297
#	144927
#	172008
#	217688
#
# Disc length: 3392 seconds
#
# Revision: 1
# Processed by: cddbd v1.5.2PL0 Copyright (c) Steve Scherf et al.
# Submitted via: audiograbber 1.83.01
#
DISCID=650d3e08
DTITLE=Grateful Dead - 78-04-06 Curtis Hixon Convention Hall, Tampa FL
DYEAR=1900
DGENRE=
TTITLE0=Good Lovin'
TTITLE1=Dire Wolf
TTITLE2=Me and My Uncle
TTITLE3=Big River
TTITLE4=Friend Of The Devil
TTITLE5=Passenger
TTITLE6=Candyman
TTITLE7=Lazy Lightning
EXTD=
EXTT0=
EXTT1=
EXTT2=
EXTT3=
EXTT4=
EXTT5=
EXTT6=
EXTT7=
PLAYORDER=
